<svg version="1.1" viewBox="0 0 12.378 5.1621" xmlns="http://www.w3.org/2000/svg" xmlns:xlink="http://www.w3.org/1999/xlink">
 <defs>
  <linearGradient id="linearGradient2211">
   <stop style="stop-color:#ff7700" offset="0"/>
   <stop style="stop-color:#4e7600" offset="1"/>
  </linearGradient>
  <linearGradient id="linearGradient2237">
   <stop style="stop-color:#669900" offset="0"/>
   <stop style="stop-color:#405613" offset="1"/>
  </linearGradient>
  <linearGradient id="linearGradient2084">
   <stop style="stop-color:#377d00" offset="0"/>
   <stop style="stop-color:#99cc33" offset="1"/>
  </linearGradient>
  <linearGradient id="linearGradient903">
   <stop style="stop-color:#202c21" offset="0"/>
   <stop style="stop-color:#4e6053;stop-opacity:0" offset="1"/>
  </linearGradient>
  <linearGradient id="linearGradient895">
   <stop style="stop-color:#202c21" offset="0"/>
   <stop style="stop-color:#000000;stop-opacity:0" offset="1"/>
  </linearGradient>
  <linearGradient id="linearGradient879">
   <stop style="stop-color:#202c21" offset="0"/>
   <stop style="stop-color:#038c0d;stop-opacity:0" offset="1"/>
  </linearGradient>
  <linearGradient id="linearGradient2192" x1="-25.286" x2="1055.7" y1="658.29" y2="637.22" gradientTransform="matrix(.0055595 0 0 .0055595 -.89904 155.63)" gradientUnits="userSpaceOnUse">
   <stop style="stop-color:#582d02" offset="0"/>
   <stop style="stop-color:#fb8d20" offset="1"/>
  </linearGradient>
  <linearGradient id="linearGradient2051" x1="575.74" x2="575.82" y1="1203.4" y2="1129.1" gradientTransform="matrix(-.0091899 .0046573 .001907 .022444 9.6299 129.33)" gradientUnits="userSpaceOnUse" xlink:href="#linearGradient2237"/>
  <linearGradient id="linearGradient2053" x1="488.65" x2="500.2" y1="1136.7" y2="1833.3" gradientTransform="matrix(-.002677 -.00015118 -.00015118 .002677 8.6507 158.49)" gradientUnits="userSpaceOnUse" xlink:href="#linearGradient2211"/>
  <linearGradient id="linearGradient2055" x1="805.71" x2="971.05" y1="485.6" y2="485.6" gradientTransform="matrix(-1.3312 0 0 1.1941 2190 -743.28)" gradientUnits="userSpaceOnUse" xlink:href="#linearGradient2084"/>
  <linearGradient id="linearGradient2059" x1="545.32" x2="819.63" y1="155.5" y2="155.5" gradientTransform="matrix(-.88818 1.0255 1.2296 .74074 1431.8 -978.18)" gradientUnits="userSpaceOnUse" xlink:href="#linearGradient903"/>
  <linearGradient id="linearGradient2063" x1="587.66" x2="673.49" y1="105" y2="105" gradientTransform="matrix(-.88506 1.0991 1.077 .69778 1433.5 -999.93)" gradientUnits="userSpaceOnUse">
   <stop style="stop-color:#202c21" offset="0"/>
   <stop style="stop-color:#000000;stop-opacity:0" offset="1"/>
  </linearGradient>
  <linearGradient id="linearGradient2067" x1="635.65" x2="663.53" y1="151.5" y2="151.5" gradientTransform="matrix(-1.3011 1.6158 1.3629 .88302 1679.1 -1377.9)" gradientUnits="userSpaceOnUse" xlink:href="#linearGradient879"/>
  <linearGradient id="linearGradient2071" x1="676.93" x2="730.25" y1="126.18" y2="126.18" gradientTransform="matrix(-.90284 1.1212 1.1564 .74923 1452.5 -1049.9)" gradientUnits="userSpaceOnUse">
   <stop style="stop-color:#202c21" offset="0"/>
   <stop style="stop-color:#000000;stop-opacity:0" offset="1"/>
  </linearGradient>
  <linearGradient id="linearGradient2075" x1="712.86" x2="731.9" y1="160.84" y2="160.84" gradientTransform="matrix(-.9931 1.2333 1.2606 .81675 1511.2 -1173.5)" gradientUnits="userSpaceOnUse" xlink:href="#linearGradient895"/>
  <linearGradient id="linearGradient2063-2" x1="587.66" x2="673.49" y1="105" y2="105" gradientTransform="matrix(-.88506 1.0991 1.077 .69778 1433.5 -999.93)" gradientUnits="userSpaceOnUse" xlink:href="#linearGradient895"/>
  <linearGradient id="linearGradient2071-6" x1="676.93" x2="730.25" y1="126.18" y2="126.18" gradientTransform="matrix(-.90284 1.1212 1.1564 .74923 1452.5 -1049.9)" gradientUnits="userSpaceOnUse" xlink:href="#linearGradient895"/>
  <linearGradient id="linearGradient2587" x1="575.74" x2="575.82" y1="1203.4" y2="1129.1" gradientTransform="matrix(-.0091899 .001907 .001907 .0091899 10.063 149.87)" gradientUnits="userSpaceOnUse" xlink:href="#linearGradient2237"/>
 </defs>
 <g transform="translate(.89904 -156.57)">
  <path d="m-.89904 157.5c2.5949-.27961 6.7474.10274 9.2197.23194l-.15739.0538c-1.6796-.12944-4.6833-.10518-6.5531.27805-.17381.36454 3.7248 3.001 4.7589 2.7071l-.14178.1327c-.36774.36487-4.8465-1.9248-5.3343-2.6718-.84171.063-1.2297.19315-1.792.37818z" style="fill:url(#linearGradient2192);stop-color:#000000"/>
  <path d="m6.5583 157.67c-.086582-.0815-.063664.0754-.10157.0244.10226.23299.21315.75052.13781 1.4026.066535.0803.024134.16852.080839-.0244.036254-.42951-.033532-.96937-.11708-1.403z" style="fill:url(#linearGradient2051);stop-color:#000000"/>
  <g transform="translate(-.49954 -.12812)">
   <g transform="rotate(-22.812 1.5669 159.86)">
    <path d="m6.8764 164.22c.71951.0222 1.1737-.84648.69005-1.496-.13807-.18544-.22817-.74739-.59944-.7657-.2834-.005-.41726.43892-.57039.58503-.62565.59701-.23114 1.6548.47978 1.6767z" style="fill:url(#linearGradient2053);stop-color:#000000"/>
    <path d="m6.9911 161.47c-.090983-.0748-.069629-.0253-.10157.01.10226.0954.21315.30731.13781.57433.066535.0329.024134.069.080839-.01.036254-.17587-.033532-.39692-.11708-.57448z" style="fill:url(#linearGradient2587);stop-color:#000000"/>
   </g>
   <g transform="rotate(-57.958 3.9698 159.61)">
    <path d="m6.8764 164.22c.71951.0222 1.1737-.84648.69005-1.496-.13807-.18544-.22817-.74739-.59944-.7657-.2834-.005-.41726.43892-.57039.58503-.62565.59701-.23114 1.6548.47978 1.6767z" style="fill:url(#linearGradient2053);stop-color:#000000"/>
    <path d="m6.9911 161.47c-.090983-.0748-.069629-.0253-.10157.01.10226.0954.21315.30731.13781.57433.066535.0329.024134.069.080839-.01.036254-.17587-.033532-.39692-.11708-.57448z" style="fill:url(#linearGradient2587);stop-color:#000000"/>
   </g>
   <g transform="matrix(-.82692 -.56233 -.56233 .82692 103.65 29.629)">
    <path d="m6.8764 164.22c.71951.0222 1.1737-.84648.69005-1.496-.13807-.18544-.22817-.74739-.59944-.7657-.2834-.005-.41726.43892-.57039.58503-.62565.59701-.23114 1.6548.47978 1.6767z" style="fill:url(#linearGradient2053);stop-color:#000000"/>
    <path d="m6.9911 161.47c-.090983-.0748-.069629-.0253-.10157.01.10226.0954.21315.30731.13781.57433.066535.0329.024134.069.080839-.01.036254-.17587-.033532-.39692-.11708-.57448z" style="fill:url(#linearGradient2587);stop-color:#000000"/>
   </g>
  </g>
  <g>
   <g transform="matrix(1.5434 0 0 1.5884 -9.0414 -98.201)">
    <g transform="matrix(-.0033193 .0034788 .0034788 .0033193 12.233 158.42)">
     <path d="m1076.4-310.77s-27.146 5.8823-58.398 18.087c-7.7119 3.0118-20.509.0685-28.965 5.0203-7.8955 4.6238-10.382 15.974-17.321 21.295-9.0947 6.9733-19.112 11.507-26.14 19.907-6.4666 7.7307-10.684 17.575-13.782 26.913-1.7027 5.1335-8.9269 11.641-11.241 18.465-2.4339 7.1771-.28812 16.484-2.4296 22.606-2.7353 7.819-9.238 10.692-12.2 19.729-2.1958 6.7004.76884 14.129-1.4101 21.293-1.8058 5.9371-8.7673 11.55-10.486 17.696-2.5249 9.0275-1.4192 20.442-3.5738 29.653-2.073 8.8618-7.4241 15.519-8.9574 24.263-4.451 25.384-6.2211 49.678-2.9471 69.434 4.4254 26.705 22.52 41.681 39.751 81.878 8.8773-14.414 34.501-6.501 60.392-39.263 4.3132-5.458 4.1836-11.999 10.08-18.912 4.2868-5.0254 14.743-10.046 17.866-15.968 2.5029-4.7468 2.5862-15.372 5.1232-20.449 3.565-7.1333 7.8685-9.3871 11.546-16.932 3.9681-8.1418 3.9834-16.922 8.146-25.206 5.1639-10.277 17.984-16.241 21.399-25.344 3.4146-9.1034-1.2359-21.843 1.128-28.857 3.3795-10.026 13.903-21.888 16.228-32.455 2.3245-10.567-6.4243-16.63-.2945-34.35 3.3809-9.7729 14.584-23.836 15.158-37.635s-6.4817-22.925-6.2431-32.753c.532-21.916-2.4295-68.116-2.4295-68.116z" style="fill:url(#linearGradient2055);stop-color:#000000"/>
     <path d="m1095.9-329.53c-153.86 166.18-116.36 266.85-165.56 376.89" style="fill:url(#linearGradient2055);stroke-width:6.304;stroke:url(#linearGradient2059)"/>
     <path d="m1043.2-269.53c-57.931 24.513-91.167 48.509-109.41 72.19" style="fill:url(#linearGradient2055);stroke-width:2.6842;stroke:url(#linearGradient2063)"/>
     <path d="m1021.1-240.38c30.229 60.878 23.522 86.157 40.686 106.73" style="fill:url(#linearGradient2055);stroke-width:3.6611;stroke:url(#linearGradient2067)"/>
     <path d="m994.49-191.29c-33.787 13.595-52.063 31.186-59.816 51.489" style="fill:url(#linearGradient2055);stroke-width:2.1069;stroke:url(#linearGradient2071)"/>
     <path d="m986.4-174.8c12.048 17.541 19.828 33.644 19.908 47.153" style="fill:url(#linearGradient2055);stroke-width:2.3072;stroke:url(#linearGradient2075)"/>
    </g>
   </g>
   <g transform="matrix(1.4049 .63893 -.65756 1.4459 97.938 -79.997)">
    <g transform="matrix(-.0033193 .0034788 .0034788 .0033193 12.233 158.42)">
     <path d="m1076.4-310.77s-27.146 5.8823-58.398 18.087c-7.7119 3.0118-20.509.0685-28.965 5.0203-7.8955 4.6238-10.382 15.974-17.321 21.295-9.0947 6.9733-19.112 11.507-26.14 19.907-6.4666 7.7307-10.684 17.575-13.782 26.913-1.7027 5.1335-8.9269 11.641-11.241 18.465-2.4339 7.1771-.28812 16.484-2.4296 22.606-2.7353 7.819-9.238 10.692-12.2 19.729-2.1958 6.7004.76884 14.129-1.4101 21.293-1.8058 5.9371-8.7673 11.55-10.486 17.696-2.5249 9.0275-1.4192 20.442-3.5738 29.653-2.073 8.8618-7.4241 15.519-8.9574 24.263-4.451 25.384-6.2211 49.678-2.9471 69.434 4.4254 26.705 22.52 41.681 39.751 81.878 8.8773-14.414 34.501-6.501 60.392-39.263 4.3132-5.458 4.1836-11.999 10.08-18.912 4.2868-5.0254 14.743-10.046 17.866-15.968 2.5029-4.7468 2.5862-15.372 5.1232-20.449 3.565-7.1333 7.8685-9.3871 11.546-16.932 3.9681-8.1418 3.9834-16.922 8.146-25.206 5.1639-10.277 17.984-16.241 21.399-25.344 3.4146-9.1034-1.2359-21.843 1.128-28.857 3.3795-10.026 13.903-21.888 16.228-32.455 2.3245-10.567-6.4243-16.63-.2945-34.35 3.3809-9.7729 14.584-23.836 15.158-37.635s-6.4817-22.925-6.2431-32.753c.532-21.916-2.4295-68.116-2.4295-68.116z" style="fill:url(#linearGradient2055);stop-color:#000000"/>
     <path d="m1095.9-329.53c-153.86 166.18-116.36 266.85-165.56 376.89" style="fill:url(#linearGradient2055);stroke-width:6.304;stroke:url(#linearGradient2059)"/>
     <path d="m1043.2-269.53c-57.931 24.513-91.167 48.509-109.41 72.19" style="fill:url(#linearGradient2055);stroke-width:2.6842;stroke:url(#linearGradient2063-2)"/>
     <path d="m1021.1-240.38c30.229 60.878 23.522 86.157 40.686 106.73" style="fill:url(#linearGradient2055);stroke-width:3.6611;stroke:url(#linearGradient2067)"/>
     <path d="m994.49-191.29c-33.787 13.595-52.063 31.186-59.816 51.489" style="fill:url(#linearGradient2055);stroke-width:2.1069;stroke:url(#linearGradient2071-6)"/>
     <path d="m986.4-174.8c12.048 17.541 19.828 33.644 19.908 47.153" style="fill:url(#linearGradient2055);stroke-width:2.3072;stroke:url(#linearGradient2075)"/>
    </g>
   </g>
   <g transform="matrix(.49645 1.4613 -1.504 .51093 241.11 64.544)">
    <g transform="matrix(-.0033193 .0034788 .0034788 .0033193 12.233 158.42)">
     <path d="m1076.4-310.77s-27.146 5.8823-58.398 18.087c-7.7119 3.0118-20.509.0685-28.965 5.0203-7.8955 4.6238-10.382 15.974-17.321 21.295-9.0947 6.9733-19.112 11.507-26.14 19.907-6.4666 7.7307-10.684 17.575-13.782 26.913-1.7027 5.1335-8.9269 11.641-11.241 18.465-2.4339 7.1771-.28812 16.484-2.4296 22.606-2.7353 7.819-9.238 10.692-12.2 19.729-2.1958 6.7004.76884 14.129-1.4101 21.293-1.8058 5.9371-8.7673 11.55-10.486 17.696-2.5249 9.0275-1.4192 20.442-3.5738 29.653-2.073 8.8618-7.4241 15.519-8.9574 24.263-4.451 25.384-6.2211 49.678-2.9471 69.434 4.4254 26.705 22.52 41.681 39.751 81.878 8.8773-14.414 34.501-6.501 60.392-39.263 4.3132-5.458 4.1836-11.999 10.08-18.912 4.2868-5.0254 14.743-10.046 17.866-15.968 2.5029-4.7468 2.5862-15.372 5.1232-20.449 3.565-7.1333 7.8685-9.3871 11.546-16.932 3.9681-8.1418 3.9834-16.922 8.146-25.206 5.1639-10.277 17.984-16.241 21.399-25.344 3.4146-9.1034-1.2359-21.843 1.128-28.857 3.3795-10.026 13.903-21.888 16.228-32.455 2.3245-10.567-6.4243-16.63-.2945-34.35 3.3809-9.7729 14.584-23.836 15.158-37.635s-6.4817-22.925-6.2431-32.753c.532-21.916-2.4295-68.116-2.4295-68.116z" style="fill:url(#linearGradient2055);stop-color:#000000"/>
     <path d="m1095.9-329.53c-153.86 166.18-116.36 266.85-165.56 376.89" style="fill:url(#linearGradient2055);stroke-width:6.304;stroke:url(#linearGradient2059)"/>
     <path d="m1043.2-269.53c-57.931 24.513-91.167 48.509-109.41 72.19" style="fill:url(#linearGradient2055);stroke-width:2.6842;stroke:url(#linearGradient2063-2)"/>
     <path d="m1021.1-240.38c30.229 60.878 23.522 86.157 40.686 106.73" style="fill:url(#linearGradient2055);stroke-width:3.6611;stroke:url(#linearGradient2067)"/>
     <path d="m994.49-191.29c-33.787 13.595-52.063 31.186-59.816 51.489" style="fill:url(#linearGradient2055);stroke-width:2.1069;stroke:url(#linearGradient2071-6)"/>
     <path d="m986.4-174.8c12.048 17.541 19.828 33.644 19.908 47.153" style="fill:url(#linearGradient2055);stroke-width:2.3072;stroke:url(#linearGradient2075)"/>
    </g>
   </g>
   <g transform="matrix(1.5434 0 0 1.5884 -3.3105 -98.189)">
    <g transform="matrix(-.0033193 .0034788 .0034788 .0033193 12.233 158.42)">
     <path d="m1076.4-310.77s-27.146 5.8823-58.398 18.087c-7.7119 3.0118-20.509.0685-28.965 5.0203-7.8955 4.6238-10.382 15.974-17.321 21.295-9.0947 6.9733-19.112 11.507-26.14 19.907-6.4666 7.7307-10.684 17.575-13.782 26.913-1.7027 5.1335-8.9269 11.641-11.241 18.465-2.4339 7.1771-.28812 16.484-2.4296 22.606-2.7353 7.819-9.238 10.692-12.2 19.729-2.1958 6.7004.76884 14.129-1.4101 21.293-1.8058 5.9371-8.7673 11.55-10.486 17.696-2.5249 9.0275-1.4192 20.442-3.5738 29.653-2.073 8.8618-7.4241 15.519-8.9574 24.263-4.451 25.384-6.2211 49.678-2.9471 69.434 4.4254 26.705 22.52 41.681 39.751 81.878 8.8773-14.414 34.501-6.501 60.392-39.263 4.3132-5.458 4.1836-11.999 10.08-18.912 4.2868-5.0254 14.743-10.046 17.866-15.968 2.5029-4.7468 2.5862-15.372 5.1232-20.449 3.565-7.1333 7.8685-9.3871 11.546-16.932 3.9681-8.1418 3.9834-16.922 8.146-25.206 5.1639-10.277 17.984-16.241 21.399-25.344 3.4146-9.1034-1.2359-21.843 1.128-28.857 3.3795-10.026 13.903-21.888 16.228-32.455 2.3245-10.567-6.4243-16.63-.2945-34.35 3.3809-9.7729 14.584-23.836 15.158-37.635s-6.4817-22.925-6.2431-32.753c.532-21.916-2.4295-68.116-2.4295-68.116z" style="fill:url(#linearGradient2055);stop-color:#000000"/>
     <path d="m1095.9-329.53c-153.86 166.18-116.36 266.85-165.56 376.89" style="fill:url(#linearGradient2055);stroke-width:6.304;stroke:url(#linearGradient2059)"/>
     <path d="m1043.2-269.53c-57.931 24.513-91.167 48.509-109.41 72.19" style="fill:url(#linearGradient2055);stroke-width:2.6842;stroke:url(#linearGradient2063-2)"/>
     <path d="m1021.1-240.38c30.229 60.878 23.522 86.157 40.686 106.73" style="fill:url(#linearGradient2055);stroke-width:3.6611;stroke:url(#linearGradient2067)"/>
     <path d="m994.49-191.29c-33.787 13.595-52.063 31.186-59.816 51.489" style="fill:url(#linearGradient2055);stroke-width:2.1069;stroke:url(#linearGradient2071-6)"/>
     <path d="m986.4-174.8c12.048 17.541 19.828 33.644 19.908 47.153" style="fill:url(#linearGradient2055);stroke-width:2.3072;stroke:url(#linearGradient2075)"/>
    </g>
   </g>
   <g transform="matrix(1.5434 0 0 1.5884 -3.0388 -98.891)">
    <g transform="matrix(-.00086132 .0046695 .0047725 .00096931 9.7896 156.78)">
     <path d="m1076.4-310.77s-27.146 5.8823-58.398 18.087c-7.7119 3.0118-20.509.0685-28.965 5.0203-7.8955 4.6238-10.382 15.974-17.321 21.295-9.0947 6.9733-19.112 11.507-26.14 19.907-6.4666 7.7307-10.684 17.575-13.782 26.913-1.7027 5.1335-8.9269 11.641-11.241 18.465-2.4339 7.1771-.28812 16.484-2.4296 22.606-2.7353 7.819-9.238 10.692-12.2 19.729-2.1958 6.7004.76884 14.129-1.4101 21.293-1.8058 5.9371-8.7673 11.55-10.486 17.696-2.5249 9.0275-1.4192 20.442-3.5738 29.653-2.073 8.8618-7.4241 15.519-8.9574 24.263-4.451 25.384-6.2211 49.678-2.9471 69.434 4.4254 26.705 22.52 41.681 39.751 81.878 8.8773-14.414 34.501-6.501 60.392-39.263 4.3132-5.458 4.1836-11.999 10.08-18.912 4.2868-5.0254 14.743-10.046 17.866-15.968 2.5029-4.7468 2.5862-15.372 5.1232-20.449 3.565-7.1333 7.8685-9.3871 11.546-16.932 3.9681-8.1418 3.9834-16.922 8.146-25.206 5.1639-10.277 17.984-16.241 21.399-25.344 3.4146-9.1034-1.2359-21.843 1.128-28.857 3.3795-10.026 13.903-21.888 16.228-32.455 2.3245-10.567-6.4243-16.63-.2945-34.35 3.3809-9.7729 14.584-23.836 15.158-37.635s-6.4817-22.925-6.2431-32.753c.532-21.916-2.4295-68.116-2.4295-68.116z" style="fill:url(#linearGradient2055);stop-color:#000000"/>
     <path d="m1095.9-329.53c-153.86 166.18-116.36 266.85-165.56 376.89" style="fill:url(#linearGradient2055);stroke-width:6.304;stroke:url(#linearGradient2059)"/>
     <path d="m1043.2-269.53c-57.931 24.513-91.167 48.509-109.41 72.19" style="fill:url(#linearGradient2055);stroke-width:2.6842;stroke:url(#linearGradient2063-2)"/>
     <path d="m1021.1-240.38c30.229 60.878 23.522 86.157 40.686 106.73" style="fill:url(#linearGradient2055);stroke-width:3.6611;stroke:url(#linearGradient2067)"/>
     <path d="m994.49-191.29c-33.787 13.595-52.063 31.186-59.816 51.489" style="fill:url(#linearGradient2055);stroke-width:2.1069;stroke:url(#linearGradient2071-6)"/>
     <path d="m986.4-174.8c12.048 17.541 19.828 33.644 19.908 47.153" style="fill:url(#linearGradient2055);stroke-width:2.3072;stroke:url(#linearGradient2075)"/>
    </g>
   </g>
  </g>
 </g>
</svg>
