<svg version="1.1" viewBox="0 0 11.426 7.1498" xmlns="http://www.w3.org/2000/svg" xmlns:xlink="http://www.w3.org/1999/xlink">
 <defs>
  <linearGradient id="linearGradient3530">
   <stop style="stop-color:#ffcc00" offset="0"/>
   <stop style="stop-color:#ff6600" offset="1"/>
  </linearGradient>
  <linearGradient id="linearGradient2237">
   <stop style="stop-color:#669900" offset="0"/>
   <stop style="stop-color:#405613" offset="1"/>
  </linearGradient>
  <linearGradient id="linearGradient2084">
   <stop style="stop-color:#377d00" offset="0"/>
   <stop style="stop-color:#99cc33" offset="1"/>
  </linearGradient>
  <linearGradient id="linearGradient903">
   <stop style="stop-color:#202c21" offset="0"/>
   <stop style="stop-color:#4e6053;stop-opacity:0" offset="1"/>
  </linearGradient>
  <linearGradient id="linearGradient895">
   <stop style="stop-color:#202c21" offset="0"/>
   <stop style="stop-color:#000000;stop-opacity:0" offset="1"/>
  </linearGradient>
  <linearGradient id="linearGradient879">
   <stop style="stop-color:#202c21" offset="0"/>
   <stop style="stop-color:#038c0d;stop-opacity:0" offset="1"/>
  </linearGradient>
  <linearGradient id="linearGradient2192" x1="-25.286" x2="1055.7" y1="658.29" y2="637.22" gradientTransform="matrix(-.0055595 0 0 .0055595 10 154.88)" gradientUnits="userSpaceOnUse">
   <stop style="stop-color:#582d02" offset="0"/>
   <stop style="stop-color:#fb8d20" offset="1"/>
  </linearGradient>
  <linearGradient id="linearGradient3783" x1="805.71" x2="971.05" y1="485.6" y2="485.6" gradientTransform="matrix(-1.3312 0 0 1.1941 2190 -743.28)" gradientUnits="userSpaceOnUse" xlink:href="#linearGradient2084"/>
  <linearGradient id="linearGradient3787" x1="545.32" x2="819.63" y1="155.5" y2="155.5" gradientTransform="matrix(-.88818 1.0255 1.2296 .74074 1431.8 -978.18)" gradientUnits="userSpaceOnUse" xlink:href="#linearGradient903"/>
  <linearGradient id="linearGradient3791" x1="587.66" x2="673.49" y1="105" y2="105" gradientTransform="matrix(-.88506 1.0991 1.077 .69778 1433.5 -999.93)" gradientUnits="userSpaceOnUse" xlink:href="#linearGradient895"/>
  <linearGradient id="linearGradient3795" x1="635.65" x2="663.53" y1="151.5" y2="151.5" gradientTransform="matrix(-1.3011 1.6158 1.3629 .88302 1679.1 -1377.9)" gradientUnits="userSpaceOnUse" xlink:href="#linearGradient879"/>
  <linearGradient id="linearGradient3799" x1="676.93" x2="730.25" y1="126.18" y2="126.18" gradientTransform="matrix(-.90284 1.1212 1.1564 .74923 1452.5 -1049.9)" gradientUnits="userSpaceOnUse" xlink:href="#linearGradient895"/>
  <linearGradient id="linearGradient3803" x1="712.86" x2="731.9" y1="160.84" y2="160.84" gradientTransform="matrix(-.9931 1.2333 1.2606 .81675 1511.2 -1173.5)" gradientUnits="userSpaceOnUse" xlink:href="#linearGradient895"/>
  <linearGradient id="linearGradient4171" x1="575.74" x2="575.82" y1="1203.4" y2="1129.1" gradientTransform="matrix(-.0039072 .0085337 .0085337 .0039072 -1.774 147.59)" gradientUnits="userSpaceOnUse" xlink:href="#linearGradient2237"/>
  <linearGradient id="linearGradient4173" x1="488.65" x2="722.76" y1="1136.7" y2="1911.9" gradientTransform="matrix(-.0017075 .0020672 .0020672 .0017075 4.8119 153.96)" gradientUnits="userSpaceOnUse" xlink:href="#linearGradient3530"/>
  <linearGradient id="linearGradient5816" x1="805.71" x2="971.05" y1="485.6" y2="485.6" gradientTransform="matrix(-.0047408 -.0046136 -.0041384 .0042525 8.1244 162.36)" gradientUnits="userSpaceOnUse" xlink:href="#linearGradient2084"/>
  <linearGradient id="linearGradient5820" x1="545.32" x2="819.63" y1="155.5" y2="155.5" gradientTransform="matrix(-.0067171 .00057397 .0018118 .0068994 6.2383 158.9)" gradientUnits="userSpaceOnUse" xlink:href="#linearGradient903"/>
  <linearGradient id="linearGradient5824" x1="587.66" x2="673.49" y1="105" y2="105" gradientTransform="matrix(-.006961 .0008468 .0014171 .0062173 6.3197 158.82)" gradientUnits="userSpaceOnUse" xlink:href="#linearGradient895"/>
  <linearGradient id="linearGradient5828" x1="635.65" x2="663.53" y1="151.5" y2="151.5" gradientTransform="matrix(-.010233 .0012449 .0017932 .0078679 8.5043 158.33)" gradientUnits="userSpaceOnUse" xlink:href="#linearGradient879"/>
  <linearGradient id="linearGradient5832" x1="676.93" x2="730.25" y1="126.18" y2="126.18" gradientTransform="matrix(-.0071008 .00086381 .0015215 .0066757 6.5606 158.71)" gradientUnits="userSpaceOnUse" xlink:href="#linearGradient895"/>
  <linearGradient id="linearGradient5836" x1="712.86" x2="731.9" y1="160.84" y2="160.84" gradientTransform="matrix(-.0078107 .00095017 .0016587 .0072774 7.1978 158.48)" gradientUnits="userSpaceOnUse" xlink:href="#linearGradient895"/>
  <linearGradient id="linearGradient5838" x1="805.71" x2="971.05" y1="485.6" y2="485.6" gradientTransform="matrix(-.0054098 -.0018623 .0016705 -.0048525 6.6583 163.28)" gradientUnits="userSpaceOnUse" xlink:href="#linearGradient2084"/>
  <linearGradient id="linearGradient5842" x1="545.32" x2="819.63" y1="155.5" y2="155.5" gradientTransform="matrix(-.0021746 -.0054099 .0060331 -.00129 3.2486 163.17)" gradientUnits="userSpaceOnUse" xlink:href="#linearGradient903"/>
  <linearGradient id="linearGradient5846" x1="587.66" x2="673.49" y1="105" y2="105" gradientTransform="matrix(-.002059 -.0057046 .0053526 -.0013289 3.2251 163.26)" gradientUnits="userSpaceOnUse" xlink:href="#linearGradient895"/>
  <linearGradient id="linearGradient5850" x1="635.65" x2="663.53" y1="151.5" y2="151.5" gradientTransform="matrix(-.003027 -.0083862 .0067736 -.0016817 3.6942 165.14)" gradientUnits="userSpaceOnUse" xlink:href="#linearGradient879"/>
  <linearGradient id="linearGradient5852" x1="805.71" x2="971.05" y1="485.6" y2="485.6" gradientTransform="matrix(-.0054098 -.0018623 .0016705 -.0048525 6.6257 163.3)" gradientUnits="userSpaceOnUse" xlink:href="#linearGradient2084"/>
  <linearGradient id="linearGradient5854" x1="676.93" x2="730.25" y1="126.18" y2="126.18" gradientTransform="matrix(-.0021004 -.0058191 .0057473 -.0014269 3.1998 163.51)" gradientUnits="userSpaceOnUse" xlink:href="#linearGradient895"/>
  <linearGradient id="linearGradient5858" x1="712.86" x2="731.9" y1="160.84" y2="160.84" gradientTransform="matrix(-.0023104 -.0064009 .0062653 -.0015555 3.2979 164.08)" gradientUnits="userSpaceOnUse" xlink:href="#linearGradient895"/>
 </defs>
 <g transform="translate(1.4263 -155.25)">
  <path d="m10 156.75c-2.5949-.27961-6.7474.10274-9.2197.23194l.15739.0538c1.6796-.12944 4.6833-.10518 6.5531.27805.17381.36454-3.7248 3.001-4.7589 2.7071l.14178.1327c.36774.36487 4.8465-1.9248 5.3343-2.6718.84171.063 1.2297.19315 1.792.37818z" style="fill:url(#linearGradient2192);stop-color:#000000"/>
  <g>
   <g transform="matrix(.0006348 .0055232 -.0055232 .0006348 3.1983 151.11)">
    <path d="m1076.4-310.77s-128.2 27.78-148.13 87.857-4.0521 296.75-4.0521 296.75 139.59-166.79 159.47-224.33c19.882-57.534-7.2858-160.28-7.2858-160.28z" style="fill:url(#linearGradient3783);stop-color:#000000"/>
    <path d="m1095.9-329.53c-153.86 166.18-108.19 222.99-157.39 333.03" style="fill:url(#linearGradient3783);stroke-width:6.304;stroke:url(#linearGradient3787)"/>
    <path d="m1043.2-269.53c-57.931 24.513-91.167 48.509-109.41 72.19" style="fill:url(#linearGradient3783);stroke-width:2.6842;stroke:url(#linearGradient3791)"/>
    <path d="m1021.1-240.38c30.229 60.878 23.522 86.157 40.686 106.73" style="fill:url(#linearGradient3783);stroke-width:3.6611;stroke:url(#linearGradient3795)"/>
    <path d="m994.49-191.29c-33.787 13.595-52.063 31.186-59.816 51.489" style="fill:url(#linearGradient3783);stroke-width:2.1069;stroke:url(#linearGradient3799)"/>
    <path d="m986.4-174.8c12.048 17.541 19.828 33.644 19.908 47.153" style="fill:url(#linearGradient3783);stroke-width:2.3072;stroke:url(#linearGradient3803)"/>
   </g>
   <g transform="matrix(.0025324 .0040874 .0040874 -.0025324 4.2654 151.66)">
    <path d="m1076.4-310.77s-128.2 27.78-148.13 87.857-4.0521 296.75-4.0521 296.75 139.59-166.79 159.47-224.33c19.882-57.534-7.2858-160.28-7.2858-160.28z" style="fill:url(#linearGradient3783);stop-color:#000000"/>
    <path d="m1095.9-329.53c-153.86 166.18-108.19 222.99-157.39 333.03" style="fill:url(#linearGradient3783);stroke-width:6.304;stroke:url(#linearGradient3787)"/>
    <path d="m1043.2-269.53c-57.931 24.513-91.167 48.509-109.41 72.19" style="fill:url(#linearGradient3783);stroke-width:2.6842;stroke:url(#linearGradient3791)"/>
    <path d="m1021.1-240.38c30.229 60.878 23.522 86.157 40.686 106.73" style="fill:url(#linearGradient3783);stroke-width:3.6611;stroke:url(#linearGradient3795)"/>
    <path d="m994.49-191.29c-33.787 13.595-52.063 31.186-59.816 51.489" style="fill:url(#linearGradient3783);stroke-width:2.1069;stroke:url(#linearGradient3799)"/>
    <path d="m986.4-174.8c12.048 17.541 19.828 33.644 19.908 47.153" style="fill:url(#linearGradient3783);stroke-width:2.3072;stroke:url(#linearGradient3803)"/>
   </g>
   <g transform="matrix(.0006348 .0055232 -.0055232 .0006348 -1.6052 151.2)">
    <path d="m1076.4-310.77s-128.2 27.78-148.13 87.857-4.0521 296.75-4.0521 296.75 139.59-166.79 159.47-224.33c19.882-57.534-7.2858-160.28-7.2858-160.28z" style="fill:url(#linearGradient3783);stop-color:#000000"/>
    <path d="m1095.9-329.53c-153.86 166.18-108.19 222.99-157.39 333.03" style="fill:url(#linearGradient3783);stroke-width:6.304;stroke:url(#linearGradient3787)"/>
    <path d="m1043.2-269.53c-57.931 24.513-91.167 48.509-109.41 72.19" style="fill:url(#linearGradient3783);stroke-width:2.6842;stroke:url(#linearGradient3791)"/>
    <path d="m1021.1-240.38c30.229 60.878 23.522 86.157 40.686 106.73" style="fill:url(#linearGradient3783);stroke-width:3.6611;stroke:url(#linearGradient3795)"/>
    <path d="m994.49-191.29c-33.787 13.595-52.063 31.186-59.816 51.489" style="fill:url(#linearGradient3783);stroke-width:2.1069;stroke:url(#linearGradient3799)"/>
    <path d="m986.4-174.8c12.048 17.541 19.828 33.644 19.908 47.153" style="fill:url(#linearGradient3783);stroke-width:2.3072;stroke:url(#linearGradient3803)"/>
   </g>
   <g transform="matrix(.0025324 .0040874 .0040874 -.0025324 -.53806 151.75)">
    <path d="m1076.4-310.77s-128.2 27.78-148.13 87.857-4.0521 296.75-4.0521 296.75 139.59-166.79 159.47-224.33c19.882-57.534-7.2858-160.28-7.2858-160.28z" style="fill:url(#linearGradient3783);stop-color:#000000"/>
    <path d="m1095.9-329.53c-153.86 166.18-108.19 222.99-157.39 333.03" style="fill:url(#linearGradient3783);stroke-width:6.304;stroke:url(#linearGradient3787)"/>
    <path d="m1043.2-269.53c-57.931 24.513-91.167 48.509-109.41 72.19" style="fill:url(#linearGradient3783);stroke-width:2.6842;stroke:url(#linearGradient3791)"/>
    <path d="m1021.1-240.38c30.229 60.878 23.522 86.157 40.686 106.73" style="fill:url(#linearGradient3783);stroke-width:3.6611;stroke:url(#linearGradient3795)"/>
    <path d="m994.49-191.29c-33.787 13.595-52.063 31.186-59.816 51.489" style="fill:url(#linearGradient3783);stroke-width:2.1069;stroke:url(#linearGradient3799)"/>
    <path d="m986.4-174.8c12.048 17.541 19.828 33.644 19.908 47.153" style="fill:url(#linearGradient3783);stroke-width:2.3072;stroke:url(#linearGradient3803)"/>
   </g>
   <g>
    <path d="m2.6596 160.04s-.55284-.34539-.83201-.2005c-.27917.14489-1.0429 1.0428-1.0429 1.0428s1.0752-.11023 1.3454-.24622c.2702-.13599.52953-.59604.52953-.59604z" style="fill:url(#linearGradient5816);stop-color:#000000"/>
    <path d="m2.7939 160.04c-1.1239.0586-1.1581.41915-1.7146.64052" style="fill:url(#linearGradient5816);stroke-width:.031326;stroke:url(#linearGradient5820)"/>
    <path d="m2.3982 160.07c-.29125-.11347-.49277-.1432-.63982-.1221" style="fill:url(#linearGradient5816);stroke-width:.013338;stroke:url(#linearGradient5824)"/>
    <path d="m2.2187 160.1c-.10374.32143-.21485.38833-.225.52109" style="fill:url(#linearGradient5816);stroke-width:.018193;stroke:url(#linearGradient5828)"/>
    <path d="m1.9537 160.18c-.16744-.0687-.29348-.0694-.39146-.0239" style="fill:url(#linearGradient5816);stroke-width:.01047;stroke:url(#linearGradient5832)"/>
    <path d="m1.8677 160.21c-.017886.10423-.046002.18853-.092494.23693" style="fill:url(#linearGradient5816);stroke-width:.011465;stroke:url(#linearGradient5836)"/>
   </g>
   <g>
    <path d="m2.738 159.96s-.48212-.29224-.47906-.56426c.00307-.27201.39821-1.2117.39821-1.2117s.33391.87308.33421 1.1347c.0003221.26162-.25383.64114-.25383.64114z" style="fill:url(#linearGradient5838);stop-color:#000000"/>
    <path d="m2.7908 160.07c-.39277-.89056-.12771-1.0575-.1737-1.5735" style="fill:url(#linearGradient5838);stroke-width:.027093;stroke:url(#linearGradient5842)"/>
    <path d="m2.6605 159.75c-.20113-.18066-.30262-.32466-.34363-.44642" style="fill:url(#linearGradient5838);stroke-width:.011536;stroke:url(#linearGradient5846)"/>
    <path d="m2.6117 159.6c.20801-.2051.21612-.31721.31464-.3768" style="fill:url(#linearGradient5838);stroke-width:.015735;stroke:url(#linearGradient5850)"/>
    <path d="m2.5395 159.38c-.11828-.10252-.16793-.19957-.17104-.29292" style="fill:url(#linearGradient5852);stroke-width:.009055;stroke:url(#linearGradient5854)"/>
    <path d="m2.5623 159.29c.073491-.0544.12767-.10897.14689-.16375" style="fill:url(#linearGradient5838);stroke-width:.0099156;stroke:url(#linearGradient5858)"/>
   </g>
  </g>
  <g>
   <g>
    <path d="m5.7554 156.94c-.11415.029-.061645.0411-.052191.0877.13741-.0259.37385.0103.54436.22917.065944-.0341.06985.0214.040037-.0709-.12023-.13339-.33966-.2081-.5322-.24597z" style="fill:url(#linearGradient4171);stop-color:#000000"/>
    <path d="m6.6474 157.16c-.038337-.11855-.10321-.0832-.13591-.0818-.18175.008-.3311.17001-.29668.35335.00634.0338.017303.087.11597.09.0091.15961-.033374.32074.00699.4396.29826.87819 1.0457.74647 1.38.33704.43922-.53805.24702-1.1259-.5546-1.3293-.2987.0486-.33875.12615-.51575.19113z" style="fill:url(#linearGradient4173);stop-color:#000000"/>
    <g transform="matrix(.00083664 .004735 .004735 -.00083664 6.7585 151.63)">
     <path d="m1076.4-310.77s-128.2 27.78-148.13 87.857-4.0521 296.75-4.0521 296.75 139.59-166.79 159.47-224.33c19.882-57.534-7.2858-160.28-7.2858-160.28z" style="fill:url(#linearGradient3783);stop-color:#000000"/>
     <path d="m1095.9-329.53c-153.86 166.18-108.19 222.99-157.39 333.03" style="fill:url(#linearGradient3783);stroke-width:6.304;stroke:url(#linearGradient3787)"/>
     <path d="m1043.2-269.53c-57.931 24.513-91.167 48.509-109.41 72.19" style="fill:url(#linearGradient3783);stroke-width:2.6842;stroke:url(#linearGradient3791)"/>
     <path d="m1021.1-240.38c30.229 60.878 23.522 86.157 40.686 106.73" style="fill:url(#linearGradient3783);stroke-width:3.6611;stroke:url(#linearGradient3795)"/>
     <path d="m994.49-191.29c-33.787 13.595-52.063 31.186-59.816 51.489" style="fill:url(#linearGradient3783);stroke-width:2.1069;stroke:url(#linearGradient3799)"/>
     <path d="m986.4-174.8c12.048 17.541 19.828 33.644 19.908 47.153" style="fill:url(#linearGradient3783);stroke-width:2.3072;stroke:url(#linearGradient3803)"/>
    </g>
   </g>
   <g transform="matrix(-.59235 .80568 .80568 .59235 -117.39 59.376)">
    <path d="m5.7554 156.94c-.11415.029-.061645.0411-.052191.0877.13741-.0259.37385.0103.54436.22917.065944-.0341.06985.0214.040037-.0709-.12023-.13339-.33966-.2081-.5322-.24597z" style="fill:url(#linearGradient4171);stop-color:#000000"/>
    <path d="m6.6474 157.16c-.038337-.11855-.10321-.0832-.13591-.0818-.18175.008-.3311.17001-.29668.35335.00634.0338.017303.087.11597.09.0091.15961-.033374.32074.00699.4396.29826.87819 1.0457.74647 1.38.33704.43922-.53805.24702-1.1259-.5546-1.3293-.2987.0486-.33875.12615-.51575.19113z" style="fill:url(#linearGradient4173);stop-color:#000000"/>
    <g transform="matrix(.00083664 .004735 .004735 -.00083664 6.7585 151.63)">
     <path d="m1076.4-310.77s-128.2 27.78-148.13 87.857-4.0521 296.75-4.0521 296.75 139.59-166.79 159.47-224.33c19.882-57.534-7.2858-160.28-7.2858-160.28z" style="fill:url(#linearGradient3783);stop-color:#000000"/>
     <path d="m1095.9-329.53c-153.86 166.18-108.19 222.99-157.39 333.03" style="fill:url(#linearGradient3783);stroke-width:6.304;stroke:url(#linearGradient3787)"/>
     <path d="m1043.2-269.53c-57.931 24.513-91.167 48.509-109.41 72.19" style="fill:url(#linearGradient3783);stroke-width:2.6842;stroke:url(#linearGradient3791)"/>
     <path d="m1021.1-240.38c30.229 60.878 23.522 86.157 40.686 106.73" style="fill:url(#linearGradient3783);stroke-width:3.6611;stroke:url(#linearGradient3795)"/>
     <path d="m994.49-191.29c-33.787 13.595-52.063 31.186-59.816 51.489" style="fill:url(#linearGradient3783);stroke-width:2.1069;stroke:url(#linearGradient3799)"/>
     <path d="m986.4-174.8c12.048 17.541 19.828 33.644 19.908 47.153" style="fill:url(#linearGradient3783);stroke-width:2.3072;stroke:url(#linearGradient3803)"/>
    </g>
   </g>
   <g transform="matrix(-.59235 .80568 .80568 .59235 -122.28 59.432)">
    <path d="m5.7554 156.94c-.11415.029-.061645.0411-.052191.0877.13741-.0259.37385.0103.54436.22917.065944-.0341.06985.0214.040037-.0709-.12023-.13339-.33966-.2081-.5322-.24597z" style="fill:url(#linearGradient4171);stop-color:#000000"/>
    <path d="m6.6474 157.16c-.038337-.11855-.10321-.0832-.13591-.0818-.18175.008-.3311.17001-.29668.35335.00634.0338.017303.087.11597.09.0091.15961-.033374.32074.00699.4396.29826.87819 1.0457.74647 1.38.33704.43922-.53805.24702-1.1259-.5546-1.3293-.2987.0486-.33875.12615-.51575.19113z" style="fill:url(#linearGradient4173);stop-color:#000000"/>
    <g transform="matrix(.00083664 .004735 .004735 -.00083664 6.7585 151.63)">
     <path d="m1076.4-310.77s-128.2 27.78-148.13 87.857-4.0521 296.75-4.0521 296.75 139.59-166.79 159.47-224.33c19.882-57.534-7.2858-160.28-7.2858-160.28z" style="fill:url(#linearGradient3783);stop-color:#000000"/>
     <path d="m1095.9-329.53c-153.86 166.18-108.19 222.99-157.39 333.03" style="fill:url(#linearGradient3783);stroke-width:6.304;stroke:url(#linearGradient3787)"/>
     <path d="m1043.2-269.53c-57.931 24.513-91.167 48.509-109.41 72.19" style="fill:url(#linearGradient3783);stroke-width:2.6842;stroke:url(#linearGradient3791)"/>
     <path d="m1021.1-240.38c30.229 60.878 23.522 86.157 40.686 106.73" style="fill:url(#linearGradient3783);stroke-width:3.6611;stroke:url(#linearGradient3795)"/>
     <path d="m994.49-191.29c-33.787 13.595-52.063 31.186-59.816 51.489" style="fill:url(#linearGradient3783);stroke-width:2.1069;stroke:url(#linearGradient3799)"/>
     <path d="m986.4-174.8c12.048 17.541 19.828 33.644 19.908 47.153" style="fill:url(#linearGradient3783);stroke-width:2.3072;stroke:url(#linearGradient3803)"/>
    </g>
   </g>
   <g transform="rotate(9.8226 2.9845 128.46)">
    <path d="m5.7554 156.94c-.11415.029-.061645.0411-.052191.0877.13741-.0259.37385.0103.54436.22917.065944-.0341.06985.0214.040037-.0709-.12023-.13339-.33966-.2081-.5322-.24597z" style="fill:url(#linearGradient4171);stop-color:#000000"/>
    <path d="m6.6474 157.16c-.038337-.11855-.10321-.0832-.13591-.0818-.18175.008-.3311.17001-.29668.35335.00634.0338.017303.087.11597.09.0091.15961-.033374.32074.00699.4396.29826.87819 1.0457.74647 1.38.33704.43922-.53805.24702-1.1259-.5546-1.3293-.2987.0486-.33875.12615-.51575.19113z" style="fill:url(#linearGradient4173);stop-color:#000000"/>
    <g transform="matrix(.00083664 .004735 .004735 -.00083664 6.7585 151.63)">
     <path d="m1076.4-310.77s-128.2 27.78-148.13 87.857-4.0521 296.75-4.0521 296.75 139.59-166.79 159.47-224.33c19.882-57.534-7.2858-160.28-7.2858-160.28z" style="fill:url(#linearGradient3783);stop-color:#000000"/>
     <path d="m1095.9-329.53c-153.86 166.18-108.19 222.99-157.39 333.03" style="fill:url(#linearGradient3783);stroke-width:6.304;stroke:url(#linearGradient3787)"/>
     <path d="m1043.2-269.53c-57.931 24.513-91.167 48.509-109.41 72.19" style="fill:url(#linearGradient3783);stroke-width:2.6842;stroke:url(#linearGradient3791)"/>
     <path d="m1021.1-240.38c30.229 60.878 23.522 86.157 40.686 106.73" style="fill:url(#linearGradient3783);stroke-width:3.6611;stroke:url(#linearGradient3795)"/>
     <path d="m994.49-191.29c-33.787 13.595-52.063 31.186-59.816 51.489" style="fill:url(#linearGradient3783);stroke-width:2.1069;stroke:url(#linearGradient3799)"/>
     <path d="m986.4-174.8c12.048 17.541 19.828 33.644 19.908 47.153" style="fill:url(#linearGradient3783);stroke-width:2.3072;stroke:url(#linearGradient3803)"/>
    </g>
   </g>
   <g transform="rotate(53.676 1.2605 155.59)">
    <path d="m5.7554 156.94c-.11415.029-.061645.0411-.052191.0877.13741-.0259.37385.0103.54436.22917.065944-.0341.06985.0214.040037-.0709-.12023-.13339-.33966-.2081-.5322-.24597z" style="fill:url(#linearGradient4171);stop-color:#000000"/>
    <path d="m6.6474 157.16c-.038337-.11855-.10321-.0832-.13591-.0818-.18175.008-.3311.17001-.29668.35335.00634.0338.017303.087.11597.09.0091.15961-.033374.32074.00699.4396.29826.87819 1.0457.74647 1.38.33704.43922-.53805.24702-1.1259-.5546-1.3293-.2987.0486-.33875.12615-.51575.19113z" style="fill:url(#linearGradient4173);stop-color:#000000"/>
    <g transform="matrix(.00083664 .004735 .004735 -.00083664 6.7585 151.63)">
     <path d="m1076.4-310.77s-128.2 27.78-148.13 87.857-4.0521 296.75-4.0521 296.75 139.59-166.79 159.47-224.33c19.882-57.534-7.2858-160.28-7.2858-160.28z" style="fill:url(#linearGradient3783);stop-color:#000000"/>
     <path d="m1095.9-329.53c-153.86 166.18-108.19 222.99-157.39 333.03" style="fill:url(#linearGradient3783);stroke-width:6.304;stroke:url(#linearGradient3787)"/>
     <path d="m1043.2-269.53c-57.931 24.513-91.167 48.509-109.41 72.19" style="fill:url(#linearGradient3783);stroke-width:2.6842;stroke:url(#linearGradient3791)"/>
     <path d="m1021.1-240.38c30.229 60.878 23.522 86.157 40.686 106.73" style="fill:url(#linearGradient3783);stroke-width:3.6611;stroke:url(#linearGradient3795)"/>
     <path d="m994.49-191.29c-33.787 13.595-52.063 31.186-59.816 51.489" style="fill:url(#linearGradient3783);stroke-width:2.1069;stroke:url(#linearGradient3799)"/>
     <path d="m986.4-174.8c12.048 17.541 19.828 33.644 19.908 47.153" style="fill:url(#linearGradient3783);stroke-width:2.3072;stroke:url(#linearGradient3803)"/>
    </g>
   </g>
  </g>
 </g>
</svg>
